<svg width="35" height="35" viewBox="0 0 35 35" fill="none" xmlns="http://www.w3.org/2000/svg">
<path d="M35.001 17.4998C35.001 27.1634 27.1646 34.9998 17.501 34.9998C14.1572 34.9998 11.0302 34.0614 8.37134 32.4337L33.1705 9.70117C34.3419 12.0462 35.001 14.6975 35.001 17.4998Z" fill="#DB1332"/>
<path d="M33.1691 9.69795L8.36992 32.4337C5.57514 30.7208 3.29812 28.2464 1.83008 25.3017L26.6293 2.56592C29.424 4.27881 31.7011 6.75323 33.1691 9.69795Z" fill="#FBDF49"/>
<path d="M26.6296 2.56611L1.83046 25.3019C0.660132 22.9537 0 20.3034 0 17.5C0 7.83639 7.83637 0 17.5 0C20.8481 0 23.9719 0.938425 26.6296 2.56611Z" fill="#009641"/>
</svg>
