<svg width="72" height="24" viewBox="0 0 72 24" fill="none" xmlns="http://www.w3.org/2000/svg">
<path d="M21.3303 0.804384C22.5788 -0.26813 24.4212 -0.268127 25.6697 0.804387L45.8291 18.1219C48.1792 20.1407 46.7546 24 43.6594 24H3.3406C0.245364 24 -1.17917 20.1407 1.17091 18.1219L21.3303 0.804384Z" fill="#0E0E1A"/>
<path d="M33.6844 1.00573C34.7088 -0.199067 36.5116 -0.341584 37.7111 0.687409L58.9987 18.9496C60.1982 19.9786 60.3401 21.7895 59.3156 22.9943C58.2912 24.1991 56.4884 24.3416 55.2889 23.3126L34.0013 5.05036C32.8018 4.02137 32.6599 2.21052 33.6844 1.00573Z" fill="#0E0E1A"/>
<path d="M45.6844 1.00573C46.7088 -0.199067 48.5116 -0.341584 49.7111 0.687409L70.9987 18.9496C72.1982 19.9786 72.3401 21.7895 71.3156 22.9943C70.2912 24.1991 68.4884 24.3416 67.2889 23.3126L46.0013 5.05036C44.8018 4.02137 44.6599 2.21052 45.6844 1.00573Z" fill="#0E0E1A"/>
</svg>
